<svg width="406" height="403" viewBox="0 0 406 403" fill="none" xmlns="http://www.w3.org/2000/svg">
<path d="M34.1867 137.062L13.8129 137.882L34.1867 138.702L77.6484 153.736L128.764 157.016L202.84 157.016L226.347 170.441L220.88 173.143V175.877L194.913 181.617L220.88 188.997V192.004L255.595 203.211L291.403 204.578L334.318 226.992L344.432 231.366L353.452 226.992L361.106 199.111L356.732 195.284H341.972L356.732 192.277V181.89H362.473L355.912 175.33V172.323L369.306 168.223L376.413 142.529L391.994 139.522V136.515L376.413 133.235L369.306 108.088L355.912 103.714V100.707L361.379 93.327H356.186L355.912 83.4867L342.245 81.0266H355.912L361.379 76.6531L354.546 50.6854L351.539 46.3119L342.245 44.3985L292.497 70.9129H276.916L247.668 73.9196L220.88 83.2133V86.4934L194.913 94.6937L221.154 99.8873V102.621L226.347 105.627L202.84 118.748L128.764 118.748L77.6484 122.301L34.1867 137.062Z" fill="white"/>
<g filter="url(#filter0_d)">
<path d="M55.728 324.765C55.5173 324.765 55.412 324.634 55.412 324.37L55.57 270.097C55.57 269.887 55.6753 269.781 55.886 269.781H71.054C74.056 269.781 76.742 270.519 79.112 271.993C81.482 273.415 83.3516 275.311 84.721 277.681C86.0903 280.051 86.775 282.632 86.775 285.423C86.775 287.688 86.2483 289.795 85.195 291.743C84.1943 293.692 82.983 295.272 81.561 296.483C83.0883 298.011 84.2733 299.775 85.116 301.776C85.9586 303.778 86.38 305.884 86.38 308.096C86.38 311.151 85.6426 313.942 84.168 316.47C82.6933 318.998 80.692 321.026 78.164 322.553C75.6886 324.028 72.9236 324.765 69.869 324.765H55.728ZM65.05 291.585H71.054C72.8973 291.585 74.372 290.953 75.478 289.689C76.6366 288.373 77.216 286.951 77.216 285.423C77.216 283.738 76.6103 282.29 75.399 281.078C74.1876 279.814 72.7393 279.182 71.054 279.182H65.05V291.585ZM64.971 315.127H69.869C71.765 315.127 73.3976 314.443 74.767 313.073C76.1363 311.651 76.821 309.992 76.821 308.096C76.821 306.2 76.1363 304.568 74.767 303.198C73.3976 301.829 71.765 301.144 69.869 301.144H65.05L64.971 315.127ZM92.3735 324.765C92.1628 324.765 92.0575 324.634 92.0575 324.37L92.1365 270.176C92.1365 269.913 92.2681 269.781 92.5315 269.781H101.3C101.564 269.781 101.695 269.913 101.695 270.176L101.616 315.048H117.89C118.154 315.048 118.285 315.18 118.285 315.443V324.37C118.285 324.634 118.154 324.765 117.89 324.765H92.3735ZM120.771 324.37L130.567 270.097C130.62 269.887 130.751 269.781 130.962 269.781H142.417C142.628 269.781 142.759 269.887 142.812 270.097L152.213 324.37C152.266 324.634 152.16 324.765 151.897 324.765H143.128C142.917 324.765 142.786 324.634 142.733 324.37L141.864 318.603H131.12L130.251 324.37C130.198 324.634 130.067 324.765 129.856 324.765H121.087C120.876 324.765 120.771 324.634 120.771 324.37ZM132.7 310.15H140.284L137.045 287.951L136.571 285.028L136.255 287.951L132.7 310.15ZM170.009 325.555C167.113 325.555 164.479 324.844 162.109 323.422C159.792 321.948 157.949 319.999 156.579 317.576C155.21 315.154 154.525 312.441 154.525 309.439L154.604 284.791C154.604 281.895 155.263 279.261 156.579 276.891C157.949 274.469 159.792 272.546 162.109 271.124C164.479 269.65 167.113 268.912 170.009 268.912C172.906 268.912 175.513 269.623 177.83 271.045C180.148 272.467 181.991 274.39 183.36 276.812C184.73 279.182 185.414 281.842 185.414 284.791V288.425C185.414 288.636 185.309 288.741 185.098 288.741H176.25C176.04 288.741 175.934 288.636 175.934 288.425V284.791C175.934 283.053 175.355 281.552 174.196 280.288C173.09 279.024 171.695 278.392 170.009 278.392C168.113 278.392 166.665 279.051 165.664 280.367C164.664 281.631 164.163 283.106 164.163 284.791V309.439C164.163 311.388 164.716 312.968 165.822 314.179C166.981 315.391 168.377 315.996 170.009 315.996C171.695 315.996 173.09 315.338 174.196 314.021C175.355 312.652 175.934 311.125 175.934 309.439V305.805C175.934 305.595 176.04 305.489 176.25 305.489H185.177C185.388 305.489 185.493 305.595 185.493 305.805V309.439C185.493 312.441 184.782 315.154 183.36 317.576C181.991 319.999 180.148 321.948 177.83 323.422C175.513 324.844 172.906 325.555 170.009 325.555ZM191.586 324.765C191.376 324.765 191.27 324.634 191.27 324.37L191.428 270.176C191.428 269.913 191.534 269.781 191.744 269.781H200.592C200.803 269.781 200.908 269.913 200.908 270.176V288.899L213.311 270.097C213.469 269.887 213.654 269.781 213.864 269.781H222.949C223.16 269.781 223.213 269.887 223.107 270.097L209.44 291.901L224.766 324.449C224.872 324.66 224.74 324.765 224.371 324.765H214.733C214.47 324.765 214.312 324.66 214.259 324.449L203.594 301.223L200.829 305.568V324.37C200.829 324.634 200.724 324.765 200.513 324.765H191.586ZM228.618 324.765C228.407 324.765 228.302 324.634 228.302 324.37L228.46 270.097C228.46 269.887 228.565 269.781 228.776 269.781H243.944C246.946 269.781 249.632 270.519 252.002 271.993C254.372 273.415 256.241 275.311 257.611 277.681C258.98 280.051 259.665 282.632 259.665 285.423C259.665 287.688 259.138 289.795 258.085 291.743C257.084 293.692 255.873 295.272 254.451 296.483C255.978 298.011 257.163 299.775 258.006 301.776C258.848 303.778 259.27 305.884 259.27 308.096C259.27 311.151 258.532 313.942 257.058 316.47C255.583 318.998 253.582 321.026 251.054 322.553C248.578 324.028 245.813 324.765 242.759 324.765H228.618ZM237.94 291.585H243.944C245.787 291.585 247.262 290.953 248.368 289.689C249.526 288.373 250.106 286.951 250.106 285.423C250.106 283.738 249.5 282.29 248.289 281.078C247.077 279.814 245.629 279.182 243.944 279.182H237.94V291.585ZM237.861 315.127H242.759C244.655 315.127 246.287 314.443 247.657 313.073C249.026 311.651 249.711 309.992 249.711 308.096C249.711 306.2 249.026 304.568 247.657 303.198C246.287 301.829 244.655 301.144 242.759 301.144H237.94L237.861 315.127ZM265.342 324.765C265.079 324.765 264.947 324.634 264.947 324.37L265.026 270.097C265.026 269.887 265.131 269.781 265.342 269.781H274.19C274.401 269.781 274.506 269.887 274.506 270.097L274.585 324.37C274.585 324.634 274.48 324.765 274.269 324.765H265.342ZM281.85 324.765C281.639 324.765 281.534 324.634 281.534 324.37L281.692 270.097C281.692 269.887 281.797 269.781 282.008 269.781H297.966C300.81 269.781 303.417 270.492 305.787 271.914C308.21 273.284 310.132 275.153 311.554 277.523C312.976 279.841 313.687 282.474 313.687 285.423C313.687 287.372 313.397 289.136 312.818 290.716C312.239 292.244 311.554 293.56 310.764 294.666C309.974 295.72 309.263 296.51 308.631 297.036C311.475 300.196 312.897 303.909 312.897 308.175L312.976 324.37C312.976 324.634 312.844 324.765 312.581 324.765H303.654C303.443 324.765 303.338 324.686 303.338 324.528V308.175C303.338 306.279 302.653 304.647 301.284 303.277C299.967 301.855 298.335 301.144 296.386 301.144H291.172L291.093 324.37C291.093 324.634 290.988 324.765 290.777 324.765H281.85ZM291.172 291.664H297.966C299.599 291.664 301.047 291.059 302.311 289.847C303.575 288.636 304.207 287.161 304.207 285.423C304.207 283.738 303.575 282.29 302.311 281.078C301.1 279.867 299.651 279.261 297.966 279.261H291.172V291.664ZM320.04 324.765C319.777 324.765 319.645 324.634 319.645 324.37L319.803 270.097C319.803 269.887 319.909 269.781 320.119 269.781L334.892 269.702C337.789 269.65 340.422 270.334 342.792 271.756C345.215 273.178 347.137 275.101 348.559 277.523C349.981 279.893 350.692 282.527 350.692 285.423V308.096C350.692 311.151 349.955 313.942 348.48 316.47C347.006 318.946 345.031 320.921 342.555 322.395C340.08 323.87 337.289 324.634 334.181 324.686L320.04 324.765ZM329.283 315.048H334.181C336.13 315.048 337.763 314.364 339.079 312.994C340.449 311.625 341.133 309.992 341.133 308.096V285.344C341.133 283.659 340.501 282.211 339.237 280.999C338.026 279.735 336.578 279.13 334.892 279.182L329.362 279.261L329.283 315.048Z" fill="white"/>
<path d="M52.252 334.64H353.773V338.59H52.252V334.64Z" fill="white"/>
</g>
<defs>
<filter id="filter0_d" x="52.252" y="268.912" width="306.521" height="72.678" filterUnits="userSpaceOnUse" color-interpolation-filters="sRGB">
<feFlood flood-opacity="0" result="BackgroundImageFix"/>
<feColorMatrix in="SourceAlpha" type="matrix" values="0 0 0 0 0 0 0 0 0 0 0 0 0 0 0 0 0 0 127 0"/>
<feOffset dx="5" dy="3"/>
<feColorMatrix type="matrix" values="0 0 0 0 0.913725 0 0 0 0 0.152941 0 0 0 0 0.254902 0 0 0 1 0"/>
<feBlend mode="normal" in2="BackgroundImageFix" result="effect1_dropShadow"/>
<feBlend mode="normal" in="SourceGraphic" in2="effect1_dropShadow" result="shape"/>
</filter>
</defs>
</svg>
